<?xml version="1.0" encoding="UTF-8" standalone="no"?>
<svg  version="1.1" xmlns="http://www.w3.org/2000/svg" width="888px" height="457.291px">
<path d="M0 457.291 L0 457.291 " stroke="black" stroke-width="1" fill="none" />

<path d="M439.262 143.294 L439.262 143.294 " stroke="black" stroke-width="1" fill="none" />

<path d="M155.199 6.72254 L157.012 5.29708 L94.9955 5.38507 L87.3226 8.1744 L81.9376 14.0962 L79.905 22.0946 L79.905 136.659 L81.2336 143.188 L84.8325 148.529 L90.1735 152.137 L96.7113 153.457 L290.099 153.457 L290.099 147.5 L96.7113 147.456 L92.5053 146.611 L88.3697 143.523 L85.906 136.659 L85.906 22.0946 L87.2082 16.9471 L90.6663 13.1371 L95.6026 11.3421 L150.553 11.2893 L155.199 6.72254 Z " stroke="black" stroke-width="1" fill="none" />

<path d="M143.18 94.7139 L143.18 94.7139 L143.18 94.7139 Z " stroke="black" stroke-width="1" fill="none" />

<path d="M213.238 96.9665 L213.238 96.9665 L213.238 96.9665 Z " stroke="black" stroke-width="1" fill="none" />

<path d="M290.099 147.5 L290.099 147.5 L290.099 147.5 Z " stroke="black" stroke-width="1" fill="none" />

<path d="M297.191 153.756 L297.191 153.756 L297.191 153.756 Z " stroke="black" stroke-width="1" fill="none" />

<path d="M299.875 151.257 L299.875 151.257 L299.875 151.257 Z " stroke="black" stroke-width="1" fill="none" />

<path d="M315.528 153.756 L315.528 153.756 L315.528 153.756 Z " stroke="black" stroke-width="1" fill="none" />

<path d="M329.66 152.621 L329.66 152.621 L329.66 152.621 Z " stroke="black" stroke-width="1" fill="none" />

<path d="M345.076 153.756 L345.076 153.756 L345.076 153.756 Z " stroke="black" stroke-width="1" fill="none" />

<path d="M352.397 150.263 L352.397 150.263 L352.397 150.263 Z " stroke="black" stroke-width="1" fill="none" />

<path d="M364.179 59.227 L364.179 59.227 L364.179 59.227 Z " stroke="black" stroke-width="1" fill="none" />

<path d="M365.006 80.5209 L365.006 80.5209 L365.006 80.5209 Z " stroke="black" stroke-width="1" fill="none" />

<path d="M369.018 153.756 L369.018 153.756 L369.018 153.756 Z " stroke="black" stroke-width="1" fill="none" />

<path d="M387.919 153.756 L387.919 153.756 L387.919 153.756 Z " stroke="black" stroke-width="1" fill="none" />

<path d="M403.256 153.756 L403.256 153.756 L403.256 153.756 Z " stroke="black" stroke-width="1" fill="none" />

<path d="M405.948 151.257 L405.948 151.257 L405.948 151.257 Z " stroke="black" stroke-width="1" fill="none" />

<path d="M431.562 142.476 L431.562 142.476 L431.562 142.476 Z " stroke="black" stroke-width="1" fill="none" />

<path d="M431.562 151.442 L431.562 151.442 L431.562 151.442 Z " stroke="black" stroke-width="1" fill="none" />

<path d="M435.056 68.2725 L435.056 68.2725 L435.056 68.2725 Z " stroke="black" stroke-width="1" fill="none" />

<path d="M439.394 47.8761 L439.394 47.8761 L439.394 47.8761 Z " stroke="black" stroke-width="1" fill="none" />

<path d="M442.825 133.984 L442.825 133.984 L442.825 133.984 Z " stroke="black" stroke-width="1" fill="none" />

<path d="M472.496 129.418 L472.496 129.418 L472.496 129.418 Z " stroke="black" stroke-width="1" fill="none" />

<path d="M478.497 134.143 L478.497 134.143 L478.497 134.143 Z " stroke="black" stroke-width="1" fill="none" />

<path d="M529.022 140.232 L529.022 140.232 L529.022 140.232 Z " stroke="black" stroke-width="1" fill="none" />

<path d="M548.186 149.04 L548.186 149.04 L548.186 149.04 Z " stroke="black" stroke-width="1" fill="none" />

<path d="M548.978 146.699 L548.978 146.699 L548.978 146.699 Z " stroke="black" stroke-width="1" fill="none" />

<path d="M567.192 143.294 L567.192 143.294 L567.192 143.294 Z " stroke="black" stroke-width="1" fill="none" />

<path d="M567.192 145.423 L567.192 145.423 L567.192 145.423 Z " stroke="black" stroke-width="1" fill="none" />

<path d="M569.559 23.9073 L569.559 23.9073 L569.559 23.9073 Z " stroke="black" stroke-width="1" fill="none" />

<path d="M584.535 142.476 L584.535 142.476 L584.535 142.476 Z " stroke="black" stroke-width="1" fill="none" />

<path d="M584.535 144.579 L584.535 144.579 L584.535 144.579 Z " stroke="black" stroke-width="1" fill="none" />

<path d="M600.303 133.984 L600.303 133.984 L600.303 133.984 Z " stroke="black" stroke-width="1" fill="none" />

<path d="M608.469 133.984 L608.469 133.984 L608.469 133.984 Z " stroke="black" stroke-width="1" fill="none" />

<path d="M611.162 136.519 L611.162 136.519 L611.162 136.519 Z " stroke="black" stroke-width="1" fill="none" />

<path d="M627.871 133.984 L627.871 133.984 L627.871 133.984 Z " stroke="black" stroke-width="1" fill="none" />

<path d="M638.738 144.605 L638.738 142.344 L630.564 142.344 L630.564 136.466 L640.102 136.466 L640.032 133.984 L627.871 133.984 L627.871 153.756 L640.48 153.756 L640.559 151.31 L630.564 151.31 L630.564 144.605 L638.738 144.605 Z " stroke="black" stroke-width="1" fill="none" />

<path d="M633.283 31.2721 L633.283 31.2721 L633.283 31.2721 Z " stroke="black" stroke-width="1" fill="none" />

<path d="M660.49 96.9665 L660.49 96.9665 L660.49 96.9665 Z " stroke="black" stroke-width="1" fill="none" />

<path d="M661.528 32.0992 L661.528 32.0992 L661.528 32.0992 Z " stroke="black" stroke-width="1" fill="none" />

<path d="M669.236 133.984 L669.236 133.984 L669.236 133.984 Z " stroke="black" stroke-width="1" fill="none" />

<path d="M671.92 136.519 L671.92 136.519 L671.92 136.519 Z " stroke="black" stroke-width="1" fill="none" />

<path d="M752.951 71.1058 L752.951 71.1058 L752.951 71.1058 Z " stroke="black" stroke-width="1" fill="none" />

<path d="M781.442 69.038 L781.442 69.038 L781.442 69.038 Z " stroke="black" stroke-width="1" fill="none" />

<path d="M847.621 11.2893 L847.621 11.2893 L847.621 11.2893 Z " stroke="black" stroke-width="1" fill="none" />

<path d="M851.58 24.6376 L851.58 24.6376 L851.58 24.6376 Z " stroke="black" stroke-width="1" fill="none" />

<path d="M856.525 24.6376 L856.525 24.6376 L856.525 24.6376 Z " stroke="black" stroke-width="1" fill="none" />

<path d="M176.009 30.445 L176.106 30.9202 L176.264 31.3777 L176.484 31.8089 L181.218 35.4077 L199.732 43.2654 L207.994 51.2902 L210.071 57.1856 L210.15 64.7088 L208.179 72.8216 L204.351 80.5649 L198.904 87.0938 L191.988 92.2765 L176.255 97.8904 L155.859 98.0224 L144.869 95.3474 L136.959 91.7398 L144.966 69.6892 L153.967 73.7632 L163.585 76.1037 L173.387 76.4557 L180.69 74.2207 L181.377 73.6752 L181.966 73.0768 L182.485 72.4257 L182.925 71.7218 L183.286 70.965 L183.576 70.1643 L183.805 69.302 L183.884 68.7652 L183.902 68.2461 L183.867 67.7533 L183.761 67.287 L183.603 66.8294 L183.383 66.3983 L178.631 62.7906 L160.083 54.7834 L151.811 46.6706 L149.735 40.74 L149.647 33.1991 L154.768 18.4078 L164.729 7.65525 L179.942 1.0647 L200.33 0.00879914 L219.873 4.52276 L212.235 26.0718 L192.411 22.4378 L179.37 24.2416 L178.658 24.6992 L178.042 25.2007 L177.531 25.7375 L177.1 26.3094 L176.748 26.9166 L176.467 27.5501 L176.247 28.2012 L176.071 28.8876 L175.983 29.4331 L175.965 29.9523 L176.009 30.445 Z " stroke="black" stroke-width="1" fill="none" />

<path d="M292.659 96.9665 L266.015 96.9665 L273.873 59.9925 L247.74 59.9925 L239.882 96.9665 L213.238 96.9665 L233.564 1.33747 L260.208 1.33747 L252.623 37.0356 L278.757 37.0356 L286.341 1.33747 L312.985 1.33747 L292.659 96.9665 Z " stroke="black" stroke-width="1" fill="none" />

<path d="M305.348 136.598 L299.875 136.519 L299.875 151.257 L305.312 151.178 L305.928 151.081 L306.483 150.932 L307.002 150.729 L307.468 150.474 L307.891 150.148 L308.26 149.77 L308.594 149.313 L308.876 148.785 L309.114 148.177 L309.316 147.482 L309.466 146.708 L309.571 145.837 L309.58 141.842 L309.474 141.006 L309.334 140.258 L309.149 139.581 L308.92 138.991 L308.638 138.472 L308.322 138.023 L307.952 137.636 L307.53 137.319 L307.063 137.055 L306.544 136.853 L305.972 136.703 L305.348 136.598 Z " stroke="black" stroke-width="1" fill="none" />

<path d="M306.914 153.457 L297.191 153.756 L297.191 133.984 L307.829 134.539 L308.603 134.864 L309.298 135.26 L309.923 135.735 L310.478 136.29 L310.953 136.923 L311.366 137.645 L311.718 138.446 L312.449 145.089 L311.305 150.104 L310.873 150.835 L310.381 151.477 L309.818 152.031 L309.193 152.498 L308.498 152.894 L307.741 153.211 L306.914 153.457 Z " stroke="black" stroke-width="1" fill="none" />

<path d="M318.221 151.31 L328.217 151.31 L328.137 153.756 L315.528 153.756 L315.528 133.984 L327.689 133.984 L327.768 136.466 L318.221 136.466 L318.221 142.344 L326.395 142.344 L326.395 144.605 L318.221 144.605 L318.221 151.31 Z " stroke="black" stroke-width="1" fill="none" />

<path d="M332.537 139.783 L332.669 140.1 " stroke="black" stroke-width="1" fill="none" />

<path d="M332.845 140.39 L333.329 140.901 L333.954 141.323 L334.693 141.692 L341.31 145.133 L341.565 145.529 L341.785 145.96 L341.97 146.435 L342.102 146.946 L342.181 147.509 L342.207 148.116 L342.181 148.802 L342.093 149.445 L341.961 150.052 L341.767 150.624 L341.521 151.16 L341.222 151.653 L340.87 152.111 L340.465 152.515 L340.007 152.885 L339.506 153.211 L338.952 153.483 L338.353 153.712 L337.702 153.897 L336.998 154.029 L336.25 154.108 L335.458 154.134 L334.631 154.108 L333.822 154.029 L329.66 152.621 L330.082 150.175 L336.417 151.618 L337.262 151.442 L337.984 151.16 L338.564 150.782 L339.013 150.298 L339.339 149.717 L339.532 149.049 L339.594 148.301 L339.488 147.526 L339.18 146.893 L338.696 146.356 L338.072 145.916 L337.332 145.529 L330.716 142.097 L330.46 141.71 L330.24 141.297 L330.064 140.839 L329.924 140.337 L329.844 139.792 L329.818 139.202 L329.915 138.076 L330.029 137.539 L330.196 137.029 L330.425 136.545 L330.689 136.087 L331.015 135.665 L331.384 135.269 L331.807 134.917 L332.291 134.6 L332.819 134.328 L333.408 134.099 L334.059 133.914 L334.754 133.782 L335.511 133.694 L336.329 133.668 L341.547 134.724 L341.178 137.064 L335.432 136.184 L334.578 136.36 L333.874 136.642 L333.329 137.003 L332.915 137.443 L332.643 137.935 L332.475 138.481 L332.431 139.053 L332.458 139.431 C332.587 139.751, 332.716 140.071, 332.845 140.39 Z " stroke="black" stroke-width="1" fill="none" />

<path d="M347.847 153.756 L345.076 153.756 L345.076 133.984 L347.847 133.984 L347.847 153.756 Z " stroke="black" stroke-width="1" fill="none" />

<path d="M352.423 137.522 L352.872 136.765 L353.382 136.096 L353.972 135.507 L354.64 135.005 L355.371 134.574 L360.21 133.632 L365.455 134.618 L365.138 137.047 L358.811 136.211 L358.134 136.325 L357.509 136.492 L356.937 136.721 L356.427 137.003 L355.96 137.346 L355.555 137.768 L355.204 138.252 L354.896 138.806 L354.64 139.44 L354.429 140.161 L354.271 140.962 L354.148 145.898 L354.253 146.761 L354.394 147.544 L354.588 148.257 L354.825 148.881 L355.107 149.436 L355.441 149.92 L355.828 150.333 L356.259 150.685 L356.752 150.976 L357.298 151.204 L357.896 151.38 L358.556 151.504 L361.908 151.46 L362.727 151.284 L363.484 151.046 L363.484 143.294 L365.877 143.294 L365.877 152.999 L356.101 153.527 L355.3 153.184 L354.57 152.762 L353.919 152.26 L353.338 151.68 L352.828 151.011 L352.397 150.263 L351.226 143.927 L352.423 137.522 Z " stroke="black" stroke-width="1" fill="none" />

<path d="M362.577 22.3762 L345.436 59.227 L364.179 59.227 L363.088 32.5744 L362.956 22.3762 L362.577 22.3762 Z " stroke="black" stroke-width="1" fill="none" />

<path d="M371.464 138.358 L371.412 138.384 " stroke="black" stroke-width="1" fill="none" />

<path d="M383.889 133.984 L383.889 153.756 L381.962 153.756 L371.464 138.358 L371.438 153.756 L369.018 153.756 L369.018 133.984 L371.464 133.984 L381.487 148.934 L381.487 133.984 L383.889 133.984 Z " stroke="black" stroke-width="1" fill="none" />

<path d="M381.487 148.934 L381.539 148.908 " stroke="black" stroke-width="1" fill="none" />

<path d="M395.424 96.9665 L365.718 96.9665 L365.006 80.5209 L335.432 80.5209 L327.724 96.9665 L299.549 96.9665 L351.622 1.33747 L383.493 1.33747 L395.424 96.9665 Z " stroke="black" stroke-width="1" fill="none" />

<path d="M400.598 151.31 L400.519 153.756 L387.919 153.756 L387.919 133.984 L400.07 133.984 L400.15 136.466 L390.602 136.466 L390.602 142.344 L398.777 142.344 L398.777 144.605 L390.602 144.605 L390.602 151.31 L400.598 151.31 Z " stroke="black" stroke-width="1" fill="none" />

<path d="M411.412 136.598 L405.948 136.519 L405.948 151.257 L411.395 151.178 L411.993 151.081 L412.556 150.932 L413.067 150.729 L413.533 150.474 L413.955 150.148 L414.334 149.77 L414.659 149.313 L414.941 148.785 L415.187 148.177 L415.381 147.482 L415.53 146.708 L415.636 145.837 L415.645 141.842 L415.548 141.006 L415.398 140.258 L415.214 139.581 L414.985 138.991 L414.712 138.472 L414.387 138.023 L414.017 137.636 L413.595 137.319 L413.128 137.055 L412.609 136.853 L412.046 136.703 L411.412 136.598 Z " stroke="black" stroke-width="1" fill="none" />

<path d="M412.979 153.457 L403.256 153.756 L403.256 133.984 L413.903 134.539 L414.668 134.864 L415.372 135.26 L415.997 135.735 L416.542 136.29 L417.026 136.923 L417.44 137.645 L417.783 138.446 L418.513 145.089 L417.369 150.104 L416.947 150.835 L416.454 151.477 L415.891 152.031 L415.266 152.498 L414.571 152.894 L413.806 153.211 L412.979 153.457 Z " stroke="black" stroke-width="1" fill="none" />

<path d="M436.129 136.36 L431.562 136.36 L431.562 142.476 L436.305 142.476 L437.071 142.432 L437.722 142.282 L438.267 142.044 L438.716 141.71 L439.059 141.279 L439.306 140.751 L439.455 140.117 L439.499 139.387 L439.446 138.63 L439.297 137.997 L439.042 137.469 L438.681 137.055 L438.215 136.739 L437.634 136.527 L436.939 136.395 L436.129 136.36 Z " stroke="black" stroke-width="1" fill="none" />

<path d="M437.335 144.631 L431.562 144.579 L431.562 151.442 L436.552 151.442 L437.37 151.398 L438.1 151.257 L438.716 151.02 L439.244 150.668 L439.649 150.192 L439.948 149.585 L440.124 148.829 L440.186 147.931 L440.133 147.13 L439.957 146.435 L439.675 145.863 L439.27 145.397 L438.751 145.036 L438.109 144.781 L437.335 144.631 Z " stroke="black" stroke-width="1" fill="none" />

<path d="M438.769 134.301 L439.297 134.477 L439.781 134.688 L440.221 134.944 L440.608 135.234 L440.951 135.568 L441.25 135.929 L441.505 136.334 L441.717 136.774 L441.875 137.258 L441.989 137.768 L442.086 138.912 L442.033 139.783 L441.875 140.557 L441.62 141.235 L441.285 141.816 L440.872 142.317 L440.397 142.722 L439.86 143.048 L439.262 143.294 L439.262 143.347 L440.071 143.584 L440.784 143.927 L441.4 144.367 L441.919 144.904 L442.333 145.547 L442.632 146.294 L442.79 149.392 L442.676 149.964 L442.526 150.5 L442.324 151.002 L442.069 151.46 L441.769 151.882 L441.409 152.269 L441.004 152.603 L440.538 152.903 L440.018 153.167 L439.438 153.378 L438.804 153.545 L438.1 153.659 L437.343 153.73 L436.516 153.756 L428.958 153.756 L428.958 133.984 L438.769 134.301 Z " stroke="black" stroke-width="1" fill="none" />

<path d="M451.149 144.579 L451.228 144.579 " stroke="black" stroke-width="1" fill="none" />

<path d="M452.522 147.06 L452.522 153.756 L449.785 153.756 L449.785 147.06 L442.825 133.984 L445.931 133.984 L451.228 144.579 L456.402 133.984 L459.376 133.984 L452.522 147.06 Z " stroke="black" stroke-width="1" fill="none" />

<path d="M464.093 29.0811 L463.406 25.9575 L460.635 23.5377 L444.752 22.6314 L439.394 47.8761 L452.936 47.6297 L458.391 45.5971 L461.893 40.4584 L464.066 30.4186 L464.093 29.0811 Z " stroke="black" stroke-width="1" fill="none" />

<path d="M492.092 25.6143 L488.088 44.506 L483.82 52.2053 L477.934 58.5055 L470.296 63.3186 L460.784 66.5567 L435.056 68.2725 L428.958 96.9665 L402.314 96.9665 L422.64 1.33747 L463.424 1.46946 L476.042 3.44926 L482.342 6.0978 L487.956 10.9109 L490.71 15.9792 L492.083 23.8369 L492.092 25.6143 Z " stroke="black" stroke-width="1" fill="none" />

<path d="M506.813 150.72 L506.469 150.421 L502.246 147.993 L501.727 147.799 L501.137 147.729 L500.539 147.799 L500.02 147.993 L493.939 151.512 L493.42 151.706 L492.831 151.776 L492.241 151.706 L491.722 151.512 L485.519 147.94 L485.079 147.597 L484.727 147.113 L484.489 146.567 L484.401 146.022 L484.392 138.859 L484.48 138.314 L484.718 137.768 L485.079 137.284 L485.501 136.932 L491.705 133.351 L492.224 133.149 L492.813 133.087 L493.403 133.149 L493.922 133.351 L499.879 136.774 L500.398 136.976 L500.988 137.038 L501.577 136.976 L502.096 136.774 L506.267 134.354 L506.61 134.055 L506.698 133.888 L506.267 133.078 L494.036 126.039 L493.517 125.845 L492.928 125.775 L492.338 125.845 L491.819 126.039 L479.28 133.316 L478.849 133.659 L478.497 134.143 L478.259 134.688 L478.171 135.243 L478.198 149.735 L478.286 150.28 L478.523 150.826 L478.875 151.301 L479.307 151.653 L491.872 158.886 L492.391 159.08 L492.989 159.15 L493.579 159.08 L494.098 158.877 L506.469 151.706 L506.813 151.407 L506.901 151.24 C506.871 151.066, 506.842 150.893, 506.813 150.72 Z " stroke="black" stroke-width="1" fill="none" />

<path d="M471.387 131.336 L471.475 130.79 L471.713 130.245 L472.065 129.77 L472.496 129.418 L491.81 118.225 L492.32 118.023 L492.919 117.961 L493.508 118.023 L494.027 118.216 L513.377 129.347 L513.808 129.699 L514.16 130.174 L514.397 130.72 L514.485 131.266 L514.521 153.589 L514.441 154.134 L514.204 154.68 L513.852 155.155 L513.412 155.507 L494.107 166.708 L493.588 166.902 L492.998 166.972 L492.408 166.902 L491.889 166.708 L472.54 155.578 L472.109 155.226 L471.757 154.75 L471.519 154.205 L471.431 153.651 L471.387 131.336 Z " stroke="black" stroke-width="1" fill="none" />

<path d="M527.051 37.9419 L559.695 37.9419 L555.357 58.3207 L522.721 58.3207 L519.246 74.6519 L560.54 74.6519 L555.296 96.9665 L487.859 96.9665 L508.185 1.33747 L573.968 1.33747 L569.559 23.9073 L530.034 23.9073 L527.051 37.9419 Z " stroke="black" stroke-width="1" fill="none" />

<path d="M529.902 137.522 L530.324 136.774 L530.825 136.114 L531.389 135.524 L532.031 135.023 L532.735 134.6 L533.518 134.248 L542 134.574 L541.648 136.994 L536.061 136.263 L535.419 136.387 L534.829 136.554 L534.292 136.774 L533.808 137.055 L533.377 137.399 L532.981 137.803 L532.647 138.278 L532.365 138.824 L532.119 139.431 L531.925 140.126 L531.776 140.892 L531.67 141.736 L531.776 146.673 L531.925 147.491 L532.128 148.221 L532.374 148.873 L532.664 149.445 L533.008 149.937 L533.395 150.368 L533.835 150.729 L534.336 151.028 L534.873 151.257 L535.471 151.433 L536.123 151.556 L541.736 150.694 L542.08 152.973 L534.292 153.782 L533.456 153.51 L532.682 153.158 L531.987 152.727 L531.353 152.207 L530.799 151.609 L530.306 150.923 L529.884 150.157 L528.731 143.69 L529.902 137.522 Z " stroke="black" stroke-width="1" fill="none" />

<path d="M552.639 135.964 L552.568 135.964 " stroke="black" stroke-width="1" fill="none" />

<path d="M553.246 138.023 L552.568 135.964 L548.978 146.699 L556.123 146.699 L553.246 138.023 Z " stroke="black" stroke-width="1" fill="none" />

<path d="M558.472 153.756 L556.889 149.04 L548.186 149.04 L546.602 153.756 L543.707 153.756 L550.975 133.984 L554.196 133.984 L561.499 153.756 L558.472 153.756 Z " stroke="black" stroke-width="1" fill="none" />

<path d="M571.196 136.334 L567.192 136.334 L567.192 143.294 L571.979 143.25 L572.736 143.109 L573.36 142.854 L573.871 142.493 L574.267 142.009 L574.54 141.385 L574.698 140.637 L574.76 139.73 L574.707 138.877 L574.548 138.155 L574.284 137.574 L573.906 137.108 L573.413 136.756 L572.797 136.51 L572.058 136.378 L571.196 136.334 Z " stroke="black" stroke-width="1" fill="none" />

<path d="M574.566 144.702 L573.677 144.931 L578.842 153.756 L575.631 153.756 L571.178 145.423 L567.192 145.423 L567.192 153.756 L564.5 153.756 L564.5 133.984 L572.709 134.072 L573.396 134.178 L574.012 134.328 L574.584 134.521 L575.112 134.759 L575.578 135.049 L576 135.375 L576.361 135.744 L576.687 136.158 L576.951 136.624 L577.171 137.135 L577.338 137.689 L577.461 138.287 L576.986 142.528 L576.555 143.259 L576 143.866 L575.34 144.35 L574.566 144.702 Z " stroke="black" stroke-width="1" fill="none" />

<path d="M589.102 136.36 L584.535 136.36 L584.535 142.476 L589.278 142.476 L590.035 142.432 L590.695 142.282 L591.24 142.044 L591.689 141.71 L592.032 141.279 L592.279 140.751 L592.419 140.117 L592.472 139.387 L592.419 138.63 L592.27 137.997 L592.015 137.469 L591.654 137.055 L591.188 136.739 L590.598 136.527 L589.912 136.395 L589.102 136.36 Z " stroke="black" stroke-width="1" fill="none" />

<path d="M590.308 144.631 L584.535 144.579 L584.535 151.442 L589.525 151.442 L590.343 151.398 L591.073 151.257 L591.689 151.02 L592.208 150.668 L592.622 150.192 L592.912 149.585 L593.097 148.829 L593.159 147.931 L593.097 147.13 L592.93 146.435 L592.648 145.863 L592.243 145.397 L591.724 145.036 L591.073 144.781 L590.308 144.631 Z " stroke="black" stroke-width="1" fill="none" />

<path d="M591.742 134.301 L592.27 134.477 L592.754 134.688 L593.194 134.944 L593.581 135.234 L593.924 135.568 L594.223 135.929 L594.478 136.334 L594.69 136.774 L594.848 137.258 L594.971 137.768 L595.059 138.912 L595.006 139.783 L594.848 140.557 L594.593 141.235 L594.258 141.816 L593.845 142.317 L593.361 142.722 L592.824 143.048 L592.235 143.294 L592.235 143.294 L592.235 143.347 L593.044 143.584 L593.757 143.927 L594.373 144.367 L594.892 144.904 L595.297 145.547 L595.605 146.294 L595.763 149.392 L595.649 149.964 L595.499 150.5 L595.297 151.002 L595.042 151.46 L594.742 151.882 L594.382 152.269 L593.977 152.603 L593.511 152.903 L592.991 153.167 L592.411 153.378 L591.777 153.545 L591.073 153.659 L590.316 153.73 L589.489 153.756 L581.931 153.756 L581.931 133.984 L591.742 134.301 Z " stroke="black" stroke-width="1" fill="none" />

<path d="M600.303 153.756 L600.303 133.984 L603.075 133.984 L603.075 153.756 L600.303 153.756 Z " stroke="black" stroke-width="1" fill="none" />

<path d="M616.635 136.598 L611.162 136.519 L611.162 151.257 L616.608 151.178 L617.215 151.081 L617.779 150.932 L618.289 150.729 L618.755 150.474 L619.169 150.148 L619.547 149.77 L619.882 149.313 L620.163 148.785 L620.401 148.177 L620.594 147.482 L620.744 146.708 L620.858 145.837 L620.858 141.842 L620.761 141.006 L620.621 140.258 L620.436 139.581 L620.207 138.991 L619.926 138.472 L619.609 138.023 L619.23 137.636 L618.817 137.319 L618.35 137.055 L617.831 136.853 L617.259 136.703 L616.635 136.598 Z " stroke="black" stroke-width="1" fill="none" />

<path d="M618.201 153.457 L608.469 153.756 L608.469 133.984 L618.271 134.301 L619.116 134.539 L619.89 134.864 L620.585 135.26 L621.21 135.735 L621.756 136.29 L622.24 136.923 L622.653 137.645 L622.996 138.446 L623.727 145.089 L622.592 150.104 L622.161 150.835 L621.668 151.477 L621.105 152.031 L620.48 152.498 L619.785 152.894 L619.028 153.211 L618.201 153.457 Z " stroke="black" stroke-width="1" fill="none" />

<path d="M609.683 25.9575 L605.486 31.3337 L601.632 41.8311 L598.095 59.6669 L598.227 69.038 L598.456 69.8827 L598.737 70.6571 L599.063 71.3786 L599.432 72.0297 L599.863 72.6193 L600.339 73.156 L600.858 73.64 L601.439 74.0711 L602.054 74.4495 L602.741 74.7839 L603.462 75.0654 L604.245 75.303 L617.699 74.7575 L618.5 74.4319 L619.283 74.0447 L620.022 73.6136 L620.744 73.1296 L625.654 67.0846 L629.525 56.4905 L633.08 38.6634 L632.975 29.4155 L632.755 28.5884 L632.482 27.8317 L632.156 27.1277 L631.778 26.4942 L631.356 25.9135 L630.88 25.3943 L630.353 24.928 L629.772 24.5144 L629.147 24.1536 L628.469 23.8369 L627.73 23.5641 L626.938 23.3353 L613.405 23.8545 L612.596 24.1712 L611.83 24.5408 L611.082 24.9631 L610.37 25.4295 L609.683 25.9575 Z " stroke="black" stroke-width="1" fill="none" />

<path d="M661.528 32.0992 L658.589 52.3197 L653.169 69.0204 L645.601 81.8408 L635.676 90.9655 L620.823 97.1249 L599.582 98.5591 L584.192 94.9339 L574.381 86.5747 L571.205 79.641 L569.647 68.7125 L573.308 43.0454 L576.88 32.0992 L582.696 20.722 L588.504 13.4363 L595.402 7.73444 L605.645 2.78933 L617.796 0.228778 L631.584 0 L643.252 2.09419 L650.459 5.46426 L656.891 11.8612 L660.032 18.751 L661.537 29.6179 L661.528 32.0992 Z " stroke="black" stroke-width="1" fill="none" />

<path d="M661.801 145.898 L661.563 145.608 " stroke="black" stroke-width="1" fill="none" />

<path d="M661.264 145.362 L660.921 145.133 L656.028 144.288 L656.028 142.317 L660.595 141.446 L661.193 140.971 L661.598 140.399 L661.827 139.739 L661.906 138.991 L661.827 138.314 L661.616 137.733 L661.273 137.24 L660.798 136.835 L660.199 136.519 L659.486 136.299 L658.668 136.167 L657.735 136.123 L656.952 136.158 L656.213 136.255 L655.509 136.413 L654.849 136.624 L654.216 136.906 L653.617 137.223 L652.491 138.023 L651.814 135.903 L651.814 135.903 L651.814 135.903 L652.368 135.471 L652.993 135.076 L653.679 134.715 L654.418 134.398 L655.219 134.134 L656.055 133.94 L660.595 134.108 L661.167 134.292 L661.695 134.512 L662.188 134.776 L662.628 135.076 L663.015 135.419 L663.358 135.797 L663.648 136.202 L663.886 136.659 L664.08 137.143 L664.212 137.662 L664.3 138.226 L664.326 138.815 L664.264 139.642 L664.088 140.381 L663.816 141.033 L663.437 141.613 L662.962 142.115 L662.408 142.546 L661.783 142.898 L661.088 143.188 L661.088 143.241 L661.95 143.514 L662.707 143.866 L663.358 144.306 L663.895 144.825 L664.317 145.432 L664.634 146.136 L664.819 146.946 L664.889 147.852 L664.854 148.529 L664.775 149.172 L664.643 149.788 L664.449 150.368 L664.203 150.914 L663.904 151.424 L663.543 151.882 L663.129 152.313 L662.654 152.691 L662.117 153.026 L661.519 153.316 L660.868 153.554 L660.155 153.747 L659.372 153.888 L658.536 153.967 L655.8 153.87 L654.972 153.721 L654.216 153.527 L651.699 152.41 L652.254 150.254 L656.072 151.609 L660.516 151.064 L661.176 150.597 L661.686 150.025 L662.038 149.348 L662.249 148.591 L662.32 147.746 L662.241 146.919 L661.994 146.206 C661.751 145.925, 661.507 145.643, 661.264 145.362 Z " stroke="black" stroke-width="1" fill="none" />

<path d="M677.393 136.598 L671.92 136.519 L671.92 151.257 L677.357 151.178 L677.965 151.081 L678.528 150.932 L679.038 150.729 L679.504 150.474 L679.927 150.148 L680.305 149.77 L680.631 149.313 L680.921 148.785 L681.159 148.177 L681.352 147.482 L681.511 146.708 L681.616 145.837 L681.625 141.842 L681.519 141.006 L681.379 140.258 L681.194 139.581 L680.956 138.991 L680.684 138.472 L680.358 138.023 L679.988 137.636 L679.575 137.319 L679.1 137.055 L678.581 136.853 L678.017 136.703 L677.393 136.598 Z " stroke="black" stroke-width="1" fill="none" />

<path d="M678.95 153.457 L669.236 153.756 L669.236 133.984 L679.021 134.301 L679.865 134.539 L680.648 134.864 L681.343 135.26 L681.968 135.735 L682.523 136.29 L682.998 136.923 L683.411 137.645 L683.754 138.446 L684.494 145.089 L683.341 150.104 L682.919 150.835 L682.426 151.477 L681.863 152.031 L681.238 152.498 L680.543 152.894 L679.786 153.211 L678.95 153.457 Z " stroke="black" stroke-width="1" fill="none" />

<path d="M687.793 153.439 L688.172 153.008 L688.497 152.551 L689.685 149.638 L689.852 148.793 L689.94 148.107 L689.993 147.456 L871.202 147.456 L877.239 145.608 L880.706 141.798 L882.017 136.659 L881.788 19.9212 L879.535 15.2313 L875.4 12.1428 L847.621 11.2893 L842.72 5.29708 L874.581 5.64025 L880.582 8.1744 L885.123 12.706 L888 22.0946 L888 136.659 L885.967 144.658 L880.582 150.58 L871.202 153.457 L687.793 153.439 Z " stroke="black" stroke-width="1" fill="none" />

<path d="M729.396 46.8642 L745.903 96.9665 L714.032 96.9665 L702.435 58.5934 L695.29 58.5934 L687.133 96.9665 L660.49 96.9665 L680.816 1.33747 L707.459 1.33747 L699.681 37.9419 L707.204 37.9419 L734.613 1.33747 L764.821 1.33747 L729.396 46.8642 Z " stroke="black" stroke-width="1" fill="none" />

<path d="M792.221 26.5382 L787.655 33.4807 L784.848 41.8311 L781.31 59.6669 L781.442 69.038 L781.671 69.8827 L781.944 70.6571 L782.27 71.3786 L782.648 72.0297 L783.07 72.6193 L783.545 73.156 L784.065 73.64 L784.637 74.0711 L785.261 74.4495 L785.939 74.7839 L786.669 75.0654 L787.443 75.303 L800.897 74.7575 L801.707 74.4319 L802.481 74.0447 L803.229 73.6136 L803.951 73.1296 L804.637 72.5841 L808.861 67.0846 L812.732 56.4905 L816.287 38.6634 L816.181 29.4155 L815.961 28.5884 L815.689 27.8317 L815.363 27.1277 L814.985 26.4942 L814.562 25.9135 L814.087 25.3943 L813.559 24.928 L812.987 24.5144 L812.354 24.1536 L811.676 23.8369 L810.937 23.5641 L810.154 23.3353 L796.612 23.8545 L795.803 24.1712 L795.037 24.5408 L794.289 24.9631 L793.576 25.4295 L792.881 25.9575 L792.221 26.5382 Z " stroke="black" stroke-width="1" fill="none" />

<path d="M844.735 32.0992 L841.805 52.3197 L836.375 69.0204 L828.808 81.8408 L818.883 90.9655 L804.03 97.1249 L782.789 98.5591 L767.399 94.9339 L757.588 86.5747 L753.884 77.6524 L752.854 68.7125 L756.506 43.0454 L760.078 32.0992 L765.903 20.722 L771.711 13.4363 L778.609 7.73444 L788.851 2.78933 L801.012 0.228778 L814.782 0 L826.45 2.09419 L833.665 5.46426 L840.098 11.8612 L843.758 20.722 L844.752 29.6179 L844.735 32.0992 Z " stroke="black" stroke-width="1" fill="none" />

<path d="M853.428 18.135 L853.428 24.6376 L851.58 24.6376 L851.58 18.135 L849.398 18.135 L849.442 16.4896 L855.575 16.4896 L855.619 18.135 L853.428 18.135 Z " stroke="black" stroke-width="1" fill="none" />

<path d="M858.153 19.6045 L858.136 19.6133 " stroke="black" stroke-width="1" fill="none" />

<path d="M861.075 21.2411 L862.984 16.4896 L864.999 16.4896 L864.999 24.6376 L863.327 24.6376 L863.318 19.5957 L861.339 24.6376 L860.124 24.6376 L858.136 19.6133 L858.145 24.6376 L856.525 24.6376 L856.525 16.4896 L858.549 16.4896 L860.441 21.2411 L860.74 22.0594 L860.775 22.0594 L861.075 21.2411 Z " stroke="black" stroke-width="1" fill="none" />

<path d="M863.345 19.6045 L863.318 19.5957 " stroke="black" stroke-width="1" fill="none" />

</svg>
