0
SECTION
2
HEADER
9
$INSUNITS
70
4
9
$ACADVER
1
AC1014
9
$HANDSEED
5
FFFF
0
ENDSEC
0
SECTION
2
TABLES
0
TABLE
2
VPORT
5
8
100
AcDbSymbolTable
0
ENDTAB
0
TABLE
2
LTYPE
5
5
100
AcDbSymbolTable
0
LTYPE
5
14
100
AcDbSymbolTableRecord
100
AcDbLinetypeTableRecord
2
BYBLOCK
70
0
0
LTYPE
5
15
100
AcDbSymbolTableRecord
100
AcDbLinetypeTableRecord
2
BYLAYER
70
0
0
ENDTAB
0
TABLE
2
LAYER
5
2
100
AcDbSymbolTable
70
2
0
LAYER
5
50
100
AcDbSymbolTableRecord
100
AcDbLayerTableRecord
2
0
70
0
6
CONTINUOUS
0
ENDTAB
0
TABLE
2
STYLE
5
3
100
AcDbSymbolTable
70
1
0
STYLE
5
11
100
AcDbSymbolTableRecord
100
AcDbTextStyleTableRecord
2
STANDARD
70
0
0
ENDTAB
0
TABLE
2
VIEW
5
6
100
AcDbSymbolTable
70
0
0
ENDTAB
0
TABLE
2
UCS
5
7
100
AcDbSymbolTable
70
0
0
ENDTAB
0
TABLE
2
APPID
5
9
100
AcDbSymbolTable
70
2
0
APPID
5
12
100
AcDbSymbolTableRecord
100
AcDbRegAppTableRecord
2
ACAD
70
0
0
ENDTAB
0
TABLE
2
DIMSTYLE
5
A
100
AcDbSymbolTable
70
1
0
ENDTAB
0
TABLE
2
BLOCK_RECORD
5
1
100
AcDbSymbolTable
70
1
0
BLOCK_RECORD
5
1F
100
AcDbSymbolTableRecord
100
AcDbBlockTableRecord
2
*MODEL_SPACE
0
BLOCK_RECORD
5
1B
100
AcDbSymbolTableRecord
100
AcDbBlockTableRecord
2
*PAPER_SPACE
0
ENDTAB
0
ENDSEC
0
SECTION
2
BLOCKS
0
BLOCK
5
20
100
AcDbEntity
100
AcDbBlockBegin
2
*MODEL_SPACE
0
ENDBLK
5
21
100
AcDbEntity
100
AcDbBlockEnd
0
BLOCK
5
1C
100
AcDbEntity
100
AcDbBlockBegin
2
*PAPER_SPACE
0
ENDBLK
5
1D
100
AcDbEntity
100
AcDbBlockEnd
0
ENDSEC
0
SECTION
2
ENTITIES
0
LWPOLYLINE
5
100
100
AcDbEntity
8
0
100
AcDbPolyline
90
8
70
1
43
0.0
10
-9.4999999999999964
20
-58.813979556474564
10
-9.4999999999999964
20
-14.500000000000002
42
0.41421356237309509
10
-14.499999999999993
20
-9.4999999999999964
10
-133.5
20
-9.5000000000000018
42
0.41421356237309509
10
-138.5
20
-14.500000000000002
10
-138.5
20
-58.813979556474543
42
0.41421356237309509
10
-133.5
20
-63.81397955647455
10
-14.500000000000002
20
-63.813979556474564
42
0.41421356237309509
0
CIRCLE
5
101
100
AcDbEntity
8
0
100
AcDbCircle
10
-106.29037645473775
20
-77.500000000000028
30
0
40
5.3749999999999964
210
0
220
0
230
1
0
CIRCLE
5
102
100
AcDbEntity
8
0
100
AcDbCircle
10
-126.29037645473775
20
-77.500000000000028
30
0
40
5.3749999999999964
210
0
220
0
230
1
0
LWPOLYLINE
5
103
100
AcDbEntity
8
0
100
AcDbPolyline
90
8
70
1
43
0.0
10
8.8817841970012523e-15
20
-167
42
-0.41421356237309198
10
-6.0000000000000142
20
-173
10
-142
20
-173.00000000000006
42
-0.41421356237309331
10
-148
20
-167
10
-148
20
-6.0000000000000018
42
-0.41421356237309709
10
-142
20
4.9303806576313238e-31
10
-6
20
4.4408920985006262e-15
42
-0.41421356237309404
10
0
20
-5.9999999999999787
0
LWPOLYLINE
5
104
100
AcDbEntity
8
0
100
AcDbPolyline
90
8
70
1
43
0.0
10
-28.453744739786156
20
-81.951349656979488
10
-28.45374473978611
20
-74.00707935488812
42
0.9839163865260071
10
-31.273889307897377
20
-71.313979556474564
10
-38.769136331050802
20
-71.313979556474564
42
1.0008972921135701
10
-41.501893518313722
20
-74.096429182321103
10
-41.501893518313715
20
-81.94645938882887
42
0.9602619479947897
10
-38.771172039000767
20
-84.726419599732537
10
-31.19241614637356
20
-84.726419599732594
42
1.0241610131392631
0
CIRCLE
5
105
100
AcDbEntity
8
0
100
AcDbCircle
10
-133
20
-92.500000000000028
30
0
40
3.2750000000000057
210
0
220
0
230
1
0
LWPOLYLINE
5
106
100
AcDbEntity
8
0
100
AcDbPolyline
90
8
70
1
43
0.0
10
-8.4537447397861474
20
-101.95134965697949
10
-8.4537447397861136
20
-94.00707935488812
42
0.9839163865260071
10
-11.273889307897377
20
-91.313979556474564
10
-18.769136331050799
20
-91.313979556474564
42
1.0008972921135393
10
-21.501893518313722
20
-94.096429182321103
10
-21.501893518313718
20
-101.94645938882887
42
0.96026194799479947
10
-18.771172039000763
20
-104.72641959973254
10
-11.192416146373558
20
-104.72641959973259
42
1.0241610131392611
0
CIRCLE
5
107
100
AcDbEntity
8
0
100
AcDbCircle
10
-99.000000000000028
20
-109.50000000000003
30
0
40
3.2750000000000057
210
0
220
0
230
1
0
CIRCLE
5
108
100
AcDbEntity
8
0
100
AcDbCircle
10
-116.00000000000001
20
-160.5
30
0
40
3.2750000000000057
210
0
220
0
230
1
0
LWPOLYLINE
5
109
100
AcDbEntity
8
0
100
AcDbPolyline
90
8
70
1
43
0.0
10
-48.45374473978616
20
-141.95134965697949
10
-48.453744739786103
20
-134.00707935488813
42
0.98391638652600355
10
-51.273889307897377
20
-131.31397955647455
10
-58.769136331050802
20
-131.31397955647455
42
1.0008972921135701
10
-61.501893518313722
20
-134.09642918232112
10
-61.501893518313715
20
-141.94645938882888
42
0.96026194799479947
10
-58.77117203900076
20
-144.72641959973254
10
-51.19241614637356
20
-144.72641959973257
42
1.0241610131392727
0
CIRCLE
5
110
100
AcDbEntity
8
0
100
AcDbCircle
10
-116.00000000000001
20
-126.50000000000003
30
0
40
3.2750000000000057
210
0
220
0
230
1
0
CIRCLE
5
111
100
AcDbEntity
8
0
100
AcDbCircle
10
-99.000000000000028
20
-143.5
30
0
40
3.2750000000000057
210
0
220
0
230
1
0
LWPOLYLINE
5
112
100
AcDbEntity
8
0
100
AcDbPolyline
90
8
70
1
43
0.0
10
-21.501893518313807
20
-74.096429182321032
10
-21.501893518313718
20
-81.94645938882887
42
0.96026194799479947
10
-18.771172039000763
20
-84.726419599732537
10
-11.192416146373558
20
-84.726419599732594
42
1.0241610131392611
10
-8.4537447397861474
20
-81.951349656979488
10
-8.4537447397861136
20
-74.00707935488812
42
0.98391638652600355
10
-11.273889307897436
20
-71.313979556474521
10
-18.769136331050799
20
-71.313979556474564
42
1.0008972921135701
0
LWPOLYLINE
5
113
100
AcDbEntity
8
0
100
AcDbPolyline
90
8
70
1
43
0.0
10
-28.453744739786156
20
-141.95134965697949
10
-28.45374473978611
20
-134.00707935488813
42
0.98391638652601032
10
-31.273889307897377
20
-131.31397955647455
10
-38.769136331050802
20
-131.31397955647455
42
1.0008972921135393
10
-41.501893518313722
20
-134.09642918232112
10
-41.501893518313715
20
-141.94645938882888
42
0.9602619479947897
10
-38.771172039000767
20
-144.72641959973254
10
-31.19241614637356
20
-144.72641959973259
42
1.0241610131392631
0
LWPOLYLINE
5
114
100
AcDbEntity
8
0
100
AcDbPolyline
90
8
70
1
43
0.0
10
-68.453744739786146
20
-121.95134965697952
10
-68.453744739786103
20
-114.00707935488812
42
0.98391638652601032
10
-71.273889307897363
20
-111.31397955647456
10
-78.769136331050788
20
-111.31397955647456
42
1.0008972921135701
10
-81.501893518313722
20
-114.0964291823211
10
-81.501893518313722
20
-121.94645938882887
42
0.96026194799479681
10
-78.77117203900076
20
-124.72641959973254
10
-71.192416146373546
20
-124.72641959973259
42
1.0241610131392513
0
LWPOLYLINE
5
115
100
AcDbEntity
8
0
100
AcDbPolyline
90
8
70
1
43
0.0
10
-68.453744739786146
20
-141.95134965697952
10
-68.453744739786103
20
-134.00707935488813
42
0.98391638652601032
10
-71.273889307897363
20
-131.31397955647455
10
-78.769136331050788
20
-131.31397955647455
42
1.0008972921135701
10
-81.501893518313722
20
-134.09642918232112
10
-81.501893518313722
20
-141.94645938882888
42
0.96026194799479681
10
-78.77117203900076
20
-144.72641959973254
10
-71.192416146373546
20
-144.72641959973259
42
1.0241610131392513
0
LWPOLYLINE
5
116
100
AcDbEntity
8
0
100
AcDbPolyline
90
8
70
1
43
0.0
10
-8.4537447397861474
20
-121.95134965697949
10
-8.4537447397861136
20
-114.00707935488812
42
0.9839163865260071
10
-11.273889307897377
20
-111.31397955647456
10
-18.769136331050799
20
-111.31397955647456
42
1.0008972921135393
10
-21.501893518313722
20
-114.0964291823211
10
-21.501893518313718
20
-121.94645938882887
42
0.96026194799479947
10
-18.771172039000763
20
-124.72641959973254
10
-11.192416146373558
20
-124.72641959973259
42
1.0241610131392611
0
LWPOLYLINE
5
117
100
AcDbEntity
8
0
100
AcDbPolyline
90
8
70
1
43
0.0
10
-68.453744739786146
20
-101.95134965697952
10
-68.453744739786103
20
-94.00707935488812
42
0.98391638652601032
10
-71.273889307897363
20
-91.313979556474564
10
-78.769136331050788
20
-91.313979556474564
42
1.0008972921135701
10
-81.501893518313722
20
-94.096429182321103
10
-81.501893518313722
20
-101.94645938882887
42
0.96026194799479681
10
-78.77117203900076
20
-104.72641959973254
10
-71.192416146373546
20
-104.72641959973259
42
1.0241610131392513
0
CIRCLE
5
118
100
AcDbEntity
8
0
100
AcDbCircle
10
-116.00000000000001
20
-92.500000000000028
30
0
40
3.2750000000000057
210
0
220
0
230
1
0
LWPOLYLINE
5
119
100
AcDbEntity
8
0
100
AcDbPolyline
90
8
70
1
43
0.0
10
-68.453744739786188
20
-161.95134965697952
10
-68.453744739786103
20
-154.00707935488813
42
0.98391638652601032
10
-71.273889307897363
20
-151.31397955647455
10
-78.769136331050788
20
-151.31397955647455
42
1.0008972921135701
10
-81.501893518313722
20
-154.09642918232112
10
-81.501893518313722
20
-161.94645938882886
42
0.96026194799477449
10
-78.77117203900076
20
-164.72641959973257
10
-71.192416146373546
20
-164.72641959973257
42
1.0241610131392753
0
CIRCLE
5
120
100
AcDbEntity
8
0
100
AcDbCircle
10
-133
20
-143.5
30
0
40
3.2750000000000057
210
0
220
0
230
1
0
LWPOLYLINE
5
121
100
AcDbEntity
8
0
100
AcDbPolyline
90
8
70
1
43
0.0
10
-48.45374473978616
20
-81.951349656979488
10
-48.453744739786103
20
-74.00707935488812
42
0.9839163865260071
10
-51.273889307897377
20
-71.313979556474564
10
-58.769136331050802
20
-71.313979556474564
42
1.0008972921136321
10
-61.501893518313722
20
-74.096429182321103
10
-61.501893518313715
20
-81.94645938882887
42
0.96026194799479947
10
-58.77117203900076
20
-84.726419599732537
10
-51.19241614637356
20
-84.72641959973258
42
1.0241610131392727
0
CIRCLE
5
122
100
AcDbEntity
8
0
100
AcDbCircle
10
-133
20
-126.50000000000003
30
0
40
3.2750000000000057
210
0
220
0
230
1
0
CIRCLE
5
123
100
AcDbEntity
8
0
100
AcDbCircle
10
-99.000000000000028
20
-92.500000000000028
30
0
40
3.2750000000000057
210
0
220
0
230
1
0
LWPOLYLINE
5
124
100
AcDbEntity
8
0
100
AcDbPolyline
90
8
70
1
43
0.0
10
-48.45374473978616
20
-101.95134965697949
10
-48.453744739786103
20
-94.00707935488812
42
0.98391638652600355
10
-51.273889307897377
20
-91.313979556474564
10
-58.769136331050802
20
-91.313979556474564
42
1.0008972921135701
10
-61.501893518313722
20
-94.096429182321103
10
-61.501893518313715
20
-101.94645938882887
42
0.96026194799479947
10
-58.77117203900076
20
-104.72641959973254
10
-51.19241614637356
20
-104.72641959973258
42
1.0241610131392727
0
LWPOLYLINE
5
125
100
AcDbEntity
8
0
100
AcDbPolyline
90
8
70
1
43
0.0
10
-8.4537447397861474
20
-141.95134965697949
10
-8.4537447397861136
20
-134.00707935488813
42
0.9839163865260071
10
-11.273889307897377
20
-131.31397955647455
10
-18.769136331050799
20
-131.31397955647455
42
1.0008972921135393
10
-21.501893518313722
20
-134.09642918232112
10
-21.501893518313718
20
-141.94645938882888
42
0.96026194799479947
10
-18.771172039000763
20
-144.72641959973254
10
-11.192416146373558
20
-144.72641959973259
42
1.0241610131392611
0
CIRCLE
5
126
100
AcDbEntity
8
0
100
AcDbCircle
10
-116.00000000000001
20
-143.5
30
0
40
3.2750000000000057
210
0
220
0
230
1
0
LWPOLYLINE
5
127
100
AcDbEntity
8
0
100
AcDbPolyline
90
8
70
1
43
0.0
10
-8.4537447397862095
20
-161.95134965697949
10
-8.4537447397861136
20
-154.00707935488813
42
0.9839163865260071
10
-11.273889307897377
20
-151.31397955647455
10
-18.769136331050799
20
-151.31397955647455
42
1.0008972921135393
10
-21.501893518313722
20
-154.09642918232112
10
-21.501893518313715
20
-161.94645938882886
42
0.96026194799478781
10
-18.771172039000763
20
-164.72641959973257
10
-11.192416146373557
20
-164.72641959973257
42
1.0241610131392838
0
LWPOLYLINE
5
128
100
AcDbEntity
8
0
100
AcDbPolyline
90
8
70
1
43
0.0
10
-48.45374473978616
20
-121.95134965697949
10
-48.453744739786103
20
-114.00707935488812
42
0.98391638652600355
10
-51.273889307897377
20
-111.31397955647456
10
-58.769136331050802
20
-111.31397955647456
42
1.0008972921135701
10
-61.501893518313722
20
-114.0964291823211
10
-61.501893518313715
20
-121.94645938882887
42
0.96026194799479947
10
-58.77117203900076
20
-124.72641959973254
10
-51.19241614637356
20
-124.72641959973258
42
1.0241610131392727
0
CIRCLE
5
129
100
AcDbEntity
8
0
100
AcDbCircle
10
-133
20
-160.5
30
0
40
3.2750000000000057
210
0
220
0
230
1
0
LWPOLYLINE
5
130
100
AcDbEntity
8
0
100
AcDbPolyline
90
8
70
1
43
0.0
10
-48.453744739786202
20
-161.95134965697949
10
-48.453744739786103
20
-154.00707935488813
42
0.98391638652600355
10
-51.273889307897377
20
-151.31397955647455
10
-58.769136331050802
20
-151.31397955647455
42
1.0008972921135701
10
-61.501893518313722
20
-154.09642918232112
10
-61.501893518313715
20
-161.94645938882886
42
0.96026194799478781
10
-58.77117203900076
20
-164.72641959973257
10
-51.192416146373539
20
-164.72641959973257
42
1.0241610131392871
0
LWPOLYLINE
5
131
100
AcDbEntity
8
0
100
AcDbPolyline
90
8
70
1
43
0.0
10
-28.453744739786156
20
-121.95134965697949
10
-28.45374473978611
20
-114.00707935488812
42
0.98391638652601032
10
-31.273889307897377
20
-111.31397955647456
10
-38.769136331050802
20
-111.31397955647456
42
1.0008972921135393
10
-41.501893518313722
20
-114.0964291823211
10
-41.501893518313715
20
-121.94645938882887
42
0.9602619479947897
10
-38.771172039000767
20
-124.72641959973254
10
-31.19241614637356
20
-124.72641959973259
42
1.0241610131392631
0
CIRCLE
5
132
100
AcDbEntity
8
0
100
AcDbCircle
10
-99.000000000000028
20
-160.5
30
0
40
3.2750000000000057
210
0
220
0
230
1
0
CIRCLE
5
133
100
AcDbEntity
8
0
100
AcDbCircle
10
-99.000000000000028
20
-126.50000000000003
30
0
40
3.2750000000000057
210
0
220
0
230
1
0
CIRCLE
5
134
100
AcDbEntity
8
0
100
AcDbCircle
10
-116.00000000000001
20
-109.50000000000003
30
0
40
3.2750000000000057
210
0
220
0
230
1
0
LWPOLYLINE
5
135
100
AcDbEntity
8
0
100
AcDbPolyline
90
8
70
1
43
0.0
10
-28.453744739786156
20
-101.95134965697949
10
-28.45374473978611
20
-94.00707935488812
42
0.98391638652601032
10
-31.273889307897377
20
-91.313979556474564
10
-38.769136331050802
20
-91.313979556474564
42
1.0008972921135393
10
-41.501893518313722
20
-94.096429182321103
10
-41.501893518313715
20
-101.94645938882887
42
0.9602619479947897
10
-38.771172039000767
20
-104.72641959973254
10
-31.19241614637356
20
-104.72641959973259
42
1.0241610131392631
0
LWPOLYLINE
5
136
100
AcDbEntity
8
0
100
AcDbPolyline
90
8
70
1
43
0.0
10
-28.45374473978621
20
-161.95134965697949
10
-28.45374473978611
20
-154.00707935488813
42
0.98391638652601032
10
-31.273889307897377
20
-151.31397955647455
10
-38.769136331050802
20
-151.31397955647455
42
1.0008972921135393
10
-41.501893518313722
20
-154.09642918232112
10
-41.501893518313707
20
-161.94645938882886
42
0.96026194799478848
10
-38.771172039000767
20
-164.72641959973257
10
-31.192416146373549
20
-164.72641959973257
42
1.0241610131392813
0
CIRCLE
5
137
100
AcDbEntity
8
0
100
AcDbCircle
10
-133
20
-109.50000000000003
30
0
40
3.2750000000000057
210
0
220
0
230
1
0
LWPOLYLINE
5
138
100
AcDbEntity
8
0
100
AcDbPolyline
90
8
70
1
43
0.0
10
-68.453744739786146
20
-81.951349656979517
10
-68.453744739786103
20
-74.00707935488812
42
0.98391638652601221
10
-71.273889307897363
20
-71.313979556474564
10
-78.769136331050802
20
-71.313979556474564
42
1.0008972921136321
10
-81.501893518313722
20
-74.096429182321103
10
-81.501893518313722
20
-81.94645938882887
42
0.96026194799479681
10
-78.77117203900076
20
-84.726419599732537
10
-71.192416146373546
20
-84.726419599732594
42
1.0241610131392513
0
LWPOLYLINE
5
139
100
AcDbEntity
8
0
100
AcDbPolyline
90
24
70
1
43
0.0
10
-80.958154475956178
20
-31.778681630383083
10
-75.101949227324425
20
-28.397599953655799
42
-0.26794919243112164
10
-72.898050772675646
20
-28.397599953655831
10
-67.041845524043836
20
-31.77868163038308
42
-0.26794919243111381
10
-65.939896296719468
20
-33.687313679470194
10
-65.939896296719496
20
-40.449477032924705
42
-0.26794919243111931
10
-67.041845524043865
20
-42.358109082011794
10
-72.89805077267566
20
-45.739190758739042
42
-0.26794919243112048
10
-75.10194922732444
20
-45.739190758739056
10
-80.958154475956192
20
-42.358109082011801
42
0.2679491924311253
10
-83.162052930605
20
-42.358109082011801
10
-87.129467811701744
20
-44.648697131599924
42
0.57735026918960075
10
-87.12946781170173
20
-45.603013156143497
10
-75.101949227324425
20
-52.547104248516987
42
0.26794919243112092
10
-72.898050772675646
20
-52.54710424851698
10
-61.005390910203829
20
-45.680873875538182
42
0.24784718018749208
10
-60.044070267805068
20
-43.860662684794875
10
-60.04407026780504
20
-30.283356934581231
42
0.26794919243112125
10
-61.146019495129416
20
-28.374724885494128
10
-72.898050772675646
20
-21.589686463877946
42
0.26794919243112286
10
-75.101949227324397
20
-21.589686463877914
10
-87.129467811701744
20
-28.533777556251387
42
0.57735026918967125
10
-87.12946781170173
20
-29.488093580794942
10
-83.162052930604986
20
-31.77868163038309
42
0.2679491924311253
0
LWPOLYLINE
5
140
100
AcDbEntity
8
0
100
AcDbPolyline
90
12
70
1
43
0.0
10
-75.10218813694884
20
-14.288196516636397
42
-0.26794919243111953
10
-72.898289682421279
20
-14.288173403035744
10
-54.822863170153767
20
-24.723773010069401
42
-0.26794919243112192
10
-53.720893925924656
20
-26.632393502251194
10
-53.720675033204941
20
-47.503971849630425
42
-0.26794919243112747
10
-54.822604243503399
20
-49.412615455412876
10
-72.89781186305116
20
-59.84859419575848
42
-0.26794919243111931
10
-75.101710317578721
20
-59.848617309359128
10
-93.177136829846248
20
-49.413017702325504
42
-0.26794919243112286
10
-94.279106074075372
20
-47.504397210143694
10
-94.279324966795059
20
-26.632818862764477
42
-0.26794919243113002
10
-93.177395756496608
20
-24.724175256982011
0
ENDSEC
0
SECTION
2
OBJECTS
0
DICTIONARY
5
C
100
AcDbDictionary
3
ACAD_GROUP
350
D
3
ACAD_MLINESTYLE
350
17
0
DICTIONARY
5
D
100
AcDbDictionary
0
DICTIONARY
5
1A
330
C
100
AcDbDictionary
0
DICTIONARY
5
17
100
AcDbDictionary
0
ENDSEC
0
EOF
