<?xml version="1.0" encoding="UTF-8" standalone="no"?>
<svg  version="1.1" xmlns="http://www.w3.org/2000/svg" width="732px" height="636px">
<path d="M696.556 479.985 C696.556 479.985, 697.243 479.932, 697.243 479.932 C697.243 479.932, 697.739 479.871, 697.739 479.871 C697.739 479.871, 698.347 479.766, 698.347 479.766 C698.347 479.766, 698.952 479.63, 698.952 479.63 C698.952 479.63, 699.473 479.486, 699.473 479.486 C699.473 479.486, 700.082 479.286, 700.082 479.286 C700.082 479.286, 701.091 478.866, 701.091 478.866 C701.091 478.866, 701.631 478.594, 701.631 478.594 C701.631 478.594, 702.202 478.273, 702.202 478.273 C702.202 478.273, 702.618 478.004, 702.618 478.004 C702.618 478.004, 703.106 477.664, 703.106 477.664 C703.106 477.664, 703.661 477.23, 703.661 477.23 C703.661 477.23, 704.013 476.927, 704.013 476.927 C704.013 476.927, 704.481 476.485, 704.481 476.485 C704.481 476.485, 704.923 476.016, 704.923 476.016 C704.923 476.016, 705.226 475.665, 705.226 475.665 C705.226 475.665, 705.66 475.109, 705.66 475.109 C705.66 475.109, 706.269 474.206, 706.269 474.206 C706.269 474.206, 706.59 473.635, 706.59 473.635 C706.59 473.635, 706.862 473.095, 706.862 473.095 C706.862 473.095, 707.282 472.086, 707.282 472.086 C707.282 472.086, 707.482 471.477, 707.482 471.477 C707.482 471.477, 707.626 470.956, 707.626 470.956 C707.626 470.956, 707.762 470.351, 707.762 470.351 C707.762 470.351, 707.868 469.742, 707.868 469.742 C707.868 469.742, 707.928 469.247, 707.928 469.247 C707.928 469.247, 707.981 468.559, 707.981 468.559 C707.981 468.559, 708 467.845, 708 467.845 C708 467.845, 708 36.1587, 708 36.1587 C708 36.1587, 707.981 35.4444, 707.981 35.4444 C707.981 35.4444, 707.928 34.7565, 707.928 34.7565 C707.928 34.7565, 707.868 34.2614, 707.868 34.2614 C707.868 34.2614, 707.762 33.6529, 707.762 33.6529 C707.762 33.6529, 707.626 33.0482, 707.626 33.0482 C707.626 33.0482, 707.482 32.5266, 707.482 32.5266 C707.482 32.5266, 707.282 31.9181, 707.282 31.9181 C707.282 31.9181, 706.862 30.909, 706.862 30.909 C706.862 30.909, 706.59 30.3685, 706.59 30.3685 C706.59 30.3685, 706.269 29.7978, 706.269 29.7978 C706.269 29.7978, 706.001 29.382, 706.001 29.382 C706.001 29.382, 705.66 28.8945, 705.66 28.8945 C705.66 28.8945, 705.226 28.3389, 705.226 28.3389 C705.226 28.3389, 704.923 27.9874, 704.923 27.9874 C704.923 27.9874, 704.481 27.5187, 704.481 27.5187 C704.481 27.5187, 704.013 27.0765, 704.013 27.0765 C704.013 27.0765, 703.661 26.7742, 703.661 26.7742 C703.661 26.7742, 703.106 26.3395, 703.106 26.3395 C703.106 26.3395, 702.202 25.731, 702.202 25.731 C702.202 25.731, 701.631 25.4098, 701.631 25.4098 C701.631 25.4098, 701.091 25.1376, 701.091 25.1376 C701.091 25.1376, 700.082 24.7181, 700.082 24.7181 C700.082 24.7181, 699.473 24.5178, 699.473 24.5178 C699.473 24.5178, 698.952 24.3742, 698.952 24.3742 C698.952 24.3742, 698.347 24.2381, 698.347 24.2381 C698.347 24.2381, 697.739 24.1323, 697.739 24.1323 C697.739 24.1323, 697.243 24.0718, 697.243 24.0718 C697.243 24.0718, 696.556 24.0189, 696.556 24.0189 C696.556 24.0189, 695.837 24, 695.837 24 C695.837 24, 335.996 24, 335.996 24 C335.996 24, 335.996 288.48, 335.996 288.48 C335.996 288.48, 335.985 289.073, 335.985 289.073 C335.985 289.073, 335.94 289.659, 335.94 289.659 C335.94 289.659, 335.864 290.237, 335.864 290.237 C335.864 290.237, 335.766 290.804, 335.766 290.804 C335.766 290.804, 335.637 291.36, 335.637 291.36 C335.637 291.36, 335.478 291.908, 335.478 291.908 C335.478 291.908, 335.301 292.445, 335.301 292.445 C335.301 292.445, 335.093 292.966, 335.093 292.966 C335.093 292.966, 334.862 293.477, 334.862 293.477 C334.862 293.477, 334.609 293.972, 334.609 293.972 C334.609 293.972, 334.329 294.455, 334.329 294.455 C334.329 294.455, 334.031 294.924, 334.031 294.924 C334.031 294.924, 333.71 295.374, 333.71 295.374 C333.71 295.374, 333.366 295.809, 333.366 295.809 C333.366 295.809, 333.007 296.228, 333.007 296.228 C333.007 296.228, 332.625 296.629, 332.625 296.629 C332.625 296.629, 332.224 297.01, 332.224 297.01 C332.224 297.01, 331.805 297.369, 331.805 297.369 C331.805 297.369, 331.37 297.713, 331.37 297.713 C331.37 297.713, 330.92 298.035, 330.92 298.035 C330.92 298.035, 330.452 298.333, 330.452 298.333 C330.452 298.333, 329.968 298.613, 329.968 298.613 C329.968 298.613, 329.473 298.866, 329.473 298.866 C329.473 298.866, 328.963 299.097, 328.963 299.097 C328.963 299.097, 328.441 299.305, 328.441 299.305 C328.441 299.305, 327.904 299.482, 327.904 299.482 C327.904 299.482, 327.356 299.641, 327.356 299.641 C327.356 299.641, 326.801 299.769, 326.801 299.769 C326.801 299.769, 326.234 299.868, 326.234 299.868 C326.234 299.868, 325.655 299.943, 325.655 299.943 C325.655 299.943, 325.07 299.989, 325.07 299.989 C325.07 299.989, 324.476 300, 324.476 300 C324.476 300, 60 300, 60 300 C60 300, 60 467.906, 60 467.906 C60 467.906, 60.0151 468.563, 60.0151 468.563 C60.0151 468.563, 60.068 469.247, 60.068 469.247 C60.068 469.247, 60.1285 469.742, 60.1285 469.742 C60.1285 469.742, 60.2343 470.351, 60.2343 470.351 C60.2343 470.351, 60.3704 470.956, 60.3704 470.956 C60.3704 470.956, 60.514 471.477, 60.514 471.477 C60.514 471.477, 60.7143 472.086, 60.7143 472.086 C60.7143 472.086, 61.1339 473.095, 61.1339 473.095 C61.1339 473.095, 61.406 473.635, 61.406 473.635 C61.406 473.635, 61.7272 474.206, 61.7272 474.206 C61.7272 474.206, 62.3357 475.109, 62.3357 475.109 C62.3357 475.109, 62.7704 475.665, 62.7704 475.665 C62.7704 475.665, 63.515 476.485, 63.515 476.485 C63.515 476.485, 64.3351 477.23, 64.3351 477.23 C64.3351 477.23, 64.8907 477.664, 64.8907 477.664 C64.8907 477.664, 65.3783 478.004, 65.3783 478.004 C65.3783 478.004, 65.794 478.273, 65.794 478.273 C65.794 478.273, 66.3723 478.598, 66.3723 478.598 C66.3723 478.598, 66.8901 478.859, 66.8901 478.859 C66.8901 478.859, 67.4419 479.1, 67.4419 479.1 C67.4419 479.1, 67.9143 479.286, 67.9143 479.286 C67.9143 479.286, 68.5228 479.486, 68.5228 479.486 C68.5228 479.486, 69.0444 479.63, 69.0444 479.63 C69.0444 479.63, 69.6491 479.766, 69.6491 479.766 C69.6491 479.766, 70.2576 479.871, 70.2576 479.871 C70.2576 479.871, 70.7528 479.932, 70.7528 479.932 C70.7528 479.932, 71.4406 479.985, 71.4406 479.985 C71.4406 479.985, 72.155 480.004, 72.155 480.004 C72.155 480.004, 695.837 480.004, 695.837 480.004 C695.837 480.004, 696.556 479.985, 696.556 479.985 Z " stroke="black" stroke-width="1" fill="none" />

<circle cx="184.526" cy="151.396" r="129.6" stroke="black" stroke-width="1" fill="none" />


<path d="M46.4391 493.357 C46.4391 493.357, 47.8413 494.695, 47.8413 494.695 C47.8413 494.695, 49.115 495.795, 49.115 495.795 C49.115 495.795, 50.6003 496.951, 50.6003 496.951 C50.6003 496.951, 52.0554 497.975, 52.0554 497.975 C52.0554 497.975, 53.469 498.871, 53.469 498.871 C53.469 498.871, 55.0904 499.786, 55.0904 499.786 C55.0904 499.786, 56.7231 500.606, 56.7231 500.606 C56.7231 500.606, 58.3597 501.32, 58.3597 501.32 C58.3597 501.32, 59.8526 501.895, 59.8526 501.895 C59.8526 501.895, 61.5269 502.447, 61.5269 502.447 C61.5269 502.447, 63.1861 502.908, 63.1861 502.908 C63.1861 502.908, 64.9247 503.301, 64.9247 503.301 C64.9247 503.301, 66.7994 503.626, 66.7994 503.626 C66.7994 503.626, 68.4132 503.822, 68.4132 503.822 C68.4132 503.822, 70.1102 503.955, 70.1102 503.955 C70.1102 503.955, 71.7997 504.004, 71.7997 504.004 C71.7997 504.004, 696.204 504.004, 696.204 504.004 C696.204 504.004, 697.663 503.966, 697.663 503.966 C697.663 503.966, 699.39 503.841, 699.39 503.841 C699.39 503.841, 701.306 503.611, 701.306 503.611 C701.306 503.611, 703.09 503.297, 703.09 503.297 C703.09 503.297, 704.58 502.964, 704.58 502.964 C704.58 502.964, 706.469 502.447, 706.469 502.447 C706.469 502.447, 708.268 501.849, 708.268 501.849 C708.268 501.849, 709.988 501.173, 709.988 501.173 C709.988 501.173, 711.47 500.511, 711.47 500.511 C711.47 500.511, 713.038 499.714, 713.038 499.714 C713.038 499.714, 714.21 499.056, 714.21 499.056 C714.21 499.056, 714.618 498.814, 714.618 498.814 C714.618 498.814, 716.213 497.79, 716.213 497.79 C716.213 497.79, 717.524 496.857, 717.524 496.857 C717.524 496.857, 718.575 496.04, 718.575 496.04 C718.575 496.04, 720.015 494.82, 720.015 494.82 C720.015 494.82, 721.3 493.614, 721.3 493.614 C721.3 493.614, 722.691 492.159, 722.691 492.159 C722.691 492.159, 724.037 490.579, 724.037 490.579 C724.037 490.579, 724.947 489.4, 724.947 489.4 C724.947 489.4, 725.862 488.107, 725.862 488.107 C725.862 488.107, 726.867 486.531, 726.867 486.531 C726.867 486.531, 727.756 484.959, 727.756 484.959 C727.756 484.959, 728.636 483.197, 728.636 483.197 C728.636 483.197, 729.317 481.64, 729.317 481.64 C729.317 481.64, 729.823 480.333, 729.823 480.333 C729.823 480.333, 730.443 478.473, 730.443 478.473 C730.443 478.473, 730.904 476.814, 730.904 476.814 C730.904 476.814, 731.297 475.075, 731.297 475.075 C731.297 475.075, 731.645 473.031, 731.645 473.031 C731.645 473.031, 731.826 471.511, 731.826 471.511 C731.826 471.511, 731.943 470.011, 731.943 470.011 C731.943 470.011, 732 468.2, 732 468.2 C732 468.2, 732 35.7921, 732 35.7921 C732 35.7921, 731.962 34.337, 731.962 34.337 C731.962 34.337, 731.837 32.6098, 731.837 32.6098 C731.837 32.6098, 731.607 30.6935, 731.607 30.6935 C731.607 30.6935, 731.293 28.9096, 731.293 28.9096 C731.293 28.9096, 730.961 27.4205, 730.961 27.4205 C730.961 27.4205, 730.443 25.5307, 730.443 25.5307 C730.443 25.5307, 729.846 23.7317, 729.846 23.7317 C729.846 23.7317, 729.169 22.012, 729.169 22.012 C729.169 22.012, 728.508 20.5304, 728.508 20.5304 C728.508 20.5304, 727.71 18.9619, 727.71 18.9619 C727.71 18.9619, 727.053 17.7902, 727.053 17.7902 C727.053 17.7902, 726.811 17.382, 726.811 17.382 C726.811 17.382, 725.786 15.7871, 725.786 15.7871 C725.786 15.7871, 724.853 14.4756, 724.853 14.4756 C724.853 14.4756, 724.037 13.4249, 724.037 13.4249 C724.037 13.4249, 722.816 11.9849, 722.816 11.9849 C722.816 11.9849, 721.61 10.6998, 721.61 10.6998 C721.61 10.6998, 720.155 9.30898, 720.155 9.30898 C720.155 9.30898, 718.575 7.96346, 718.575 7.96346 C718.575 7.96346, 717.396 7.0526, 717.396 7.0526 C717.396 7.0526, 716.103 6.13795, 716.103 6.13795 C716.103 6.13795, 714.527 5.1326, 714.527 5.1326 C714.527 5.1326, 712.955 4.24441, 712.955 4.24441 C712.955 4.24441, 711.194 3.36378, 711.194 3.36378 C711.194 3.36378, 709.637 2.68346, 709.637 2.68346 C709.637 2.68346, 708.329 2.17701, 708.329 2.17701 C708.329 2.17701, 706.469 1.55717, 706.469 1.55717 C706.469 1.55717, 704.81 1.09606, 704.81 1.09606 C704.81 1.09606, 703.071 0.702992, 703.071 0.702992 C703.071 0.702992, 701.027 0.355276, 701.027 0.355276 C701.027 0.355276, 699.507 0.173858, 699.507 0.173858 C699.507 0.173858, 698.007 0.0566929, 698.007 0.0566929 C698.007 0.0566929, 696.193 0, 696.193 0 C696.193 0, 71.7883 0, 71.7883 0 C71.7883 0, 70.3332 0.0377953, 70.3332 0.0377953 C70.3332 0.0377953, 68.606 0.16252, 68.606 0.16252 C68.606 0.16252, 66.6898 0.393071, 66.6898 0.393071 C66.6898 0.393071, 64.9058 0.706772, 64.9058 0.706772 C64.9058 0.706772, 63.4167 1.03937, 63.4167 1.03937 C63.4167 1.03937, 61.5269 1.55717, 61.5269 1.55717 C61.5269 1.55717, 59.8224 2.12031, 59.8224 2.12031 C59.8224 2.12031, 58.4088 2.66457, 58.4088 2.66457 C58.4088 2.66457, 56.5077 3.49984, 56.5077 3.49984 C56.5077 3.49984, 54.9581 4.28976, 54.9581 4.28976 C54.9581 4.28976, 53.7865 4.9474, 53.7865 4.9474 C53.7865 4.9474, 53.3783 5.18929, 53.3783 5.18929 C53.3783 5.18929, 51.7833 6.21354, 51.7833 6.21354 C51.7833 6.21354, 50.4718 7.14709, 50.4718 7.14709 C50.4718 7.14709, 49.4211 7.96346, 49.4211 7.96346 C49.4211 7.96346, 47.9811 9.18425, 47.9811 9.18425 C47.9811 9.18425, 46.6961 10.3899, 46.6961 10.3899 C46.6961 10.3899, 45.3052 11.845, 45.3052 11.845 C45.3052 11.845, 43.9597 13.4249, 43.9597 13.4249 C43.9597 13.4249, 43.0488 14.6041, 43.0488 14.6041 C43.0488 14.6041, 42.1342 15.8967, 42.1342 15.8967 C42.1342 15.8967, 41.1288 17.4728, 41.1288 17.4728 C41.1288 17.4728, 40.2406 19.045, 40.2406 19.045 C40.2406 19.045, 39.36 20.8063, 39.36 20.8063 C39.36 20.8063, 38.6797 22.3635, 38.6797 22.3635 C38.6797 22.3635, 38.1732 23.6712, 38.1732 23.6712 C38.1732 23.6712, 37.5534 25.5307, 37.5534 25.5307 C37.5534 25.5307, 37.0923 27.1899, 37.0923 27.1899 C37.0923 27.1899, 36.6992 28.9285, 36.6992 28.9285 C36.6992 28.9285, 36.3515 30.9732, 36.3515 30.9732 C36.3515 30.9732, 36.1701 32.4926, 36.1701 32.4926 C36.1701 32.4926, 36.0605 33.8948, 36.0605 33.8948 C36.0605 33.8948, 36.0302 34.4466, 36.0302 34.4466 C36.0302 34.4466, 36 35.8035, 36 35.8035 C36 35.8035, 36 468.197, 36 468.197 C36 468.197, 36.0302 469.542, 36.0302 469.542 C36.0302 469.542, 36.1587 471.394, 36.1587 471.394 C36.1587 471.394, 36.3591 473.091, 36.3591 473.091 C36.3591 473.091, 36.7332 475.238, 36.7332 475.238 C36.7332 475.238, 37.1187 476.92, 37.1187 476.92 C37.1187 476.92, 37.5534 478.473, 37.5534 478.473 C37.5534 478.473, 38.1506 480.272, 38.1506 480.272 C38.1506 480.272, 38.8271 481.992, 38.8271 481.992 C38.8271 481.992, 39.4885 483.473, 39.4885 483.473 C39.4885 483.473, 40.286 485.042, 40.286 485.042 C40.286 485.042, 41.0835 486.455, 41.0835 486.455 C41.0835 486.455, 42.0019 487.911, 42.0019 487.911 C42.0019 487.911, 43.1433 489.528, 43.1433 489.528 C43.1433 489.528, 44.2431 490.93, 44.2431 490.93 C44.2431 490.93, 45.2939 492.147, 45.2939 492.147 C45.2939 492.147, 46.4391 493.357, 46.4391 493.357 Z " stroke="black" stroke-width="1" fill="none" />

<path d="M678.814 170.376 C678.806 165.205, 675.139 158.865, 670.649 156.294 C623.351 129.093, 576.053 101.892, 528.755 74.6914 C524.284 72.1138, 516.953 72.1252, 512.482 74.7178 C465.278 102.076, 418.074 129.435, 370.87 156.794 C366.398 159.386, 362.742 165.735, 362.752 170.908 C362.845 225.468, 362.938 280.027, 363.032 334.587 C363.032 339.752, 366.707 346.089, 371.199 348.667 C418.493 375.867, 465.787 403.067, 513.08 430.268 C517.563 432.852, 524.885 432.833, 529.366 430.245 C576.569 402.885, 623.773 375.526, 670.976 348.167 C675.45 345.575, 679.106 339.224, 679.096 334.053 C679.002 279.494, 678.908 224.935, 678.814 170.376 Z " stroke="black" stroke-width="1" fill="none" />

<path d="M620.043 320.271 C589.777 337.808, 559.51 355.346, 529.244 372.883 C524.782 375.471, 517.46 375.489, 512.978 372.907 C482.256 355.236, 451.534 337.566, 420.812 319.895 C416.33 317.318, 412.665 310.981, 412.655 305.812 C412.595 270.372, 412.536 234.932, 412.476 199.492 C412.476 194.322, 416.123 187.97, 420.605 185.38 C451.268 167.611, 481.931 149.842, 512.593 132.074 C517.067 129.479, 524.387 129.471, 528.869 132.048 C558.76 149.241, 588.651 166.434, 618.542 183.627 C623.024 186.203, 623.032 190.434, 618.551 193.026 C608.344 198.94, 598.138 204.853, 587.932 210.766 C583.46 213.358, 576.138 213.368, 571.658 210.786 C557.108 202.405, 542.557 194.023, 528.007 185.641 C523.525 183.06, 516.194 183.065, 511.723 185.655 C496.572 194.42, 481.421 203.186, 466.27 211.952 C461.798 214.539, 458.143 220.889, 458.143 226.059 C458.162 243.562, 458.181 261.065, 458.2 278.568 C458.2 283.741, 461.875 290.078, 466.346 292.661 C481.515 301.398, 496.684 310.136, 511.853 318.874 C516.325 321.453, 523.655 321.443, 528.13 318.858 C542.995 310.257, 557.861 301.656, 572.726 293.055 C577.208 290.465, 584.529 290.458, 589.01 293.033 C599.348 298.982, 609.686 304.931, 620.024 310.88 C624.515 313.455, 624.515 317.688, 620.043 320.271 Z " stroke="black" stroke-width="1" fill="none" />

</svg>
